<svg width="26" height="27" viewBox="0 0 26 27" fill="none" xmlns="http://www.w3.org/2000/svg">
<path fill-rule="evenodd" clip-rule="evenodd" d="M8.31347 0.422302C8.58483 0.520978 8.65884 0.496309 8.53549 0.298957C8.23947 -0.194424 9.2509 -0.0464099 9.9663 0.520979C10.731 1.13771 11.3478 2.22314 11.3478 3.01255C11.3598 3.29005 11.366 3.43183 11.4124 3.44655C11.4609 3.46193 11.5534 3.33864 11.7425 3.08656C12.0138 2.74119 12.0878 2.22314 12.0138 1.28572C11.9398 0.200281 11.9892 0.00292821 12.3592 0.00292821C12.6059 0.00292821 13.1486 0.298957 13.5927 0.668993L14.3821 1.33506L14.2587 0.668993C13.938 -1.0085 16.6269 0.792338 16.997 2.51917C17.1203 3.06189 17.3177 3.30858 17.5397 3.23458C20.426 2.39583 21.9555 2.71652 23.7316 4.46803C25.1378 5.87416 25.6805 7.45298 25.6805 10.2406C25.6805 13.9409 24.7924 16.0872 22.6462 17.4686C21.8321 18.0113 21.7828 18.11 22.0295 18.7514C22.2515 19.2941 22.2022 19.5655 21.8568 20.0835C20.796 21.7117 18.6005 21.243 18.4031 19.3188C18.2304 17.7153 16.0102 18.9241 15.6649 20.7989C15.4428 21.9831 14.4807 22.9205 13.272 23.0932C12.3592 23.2412 12.3345 23.2905 12.4579 24.0306C12.5812 24.6227 12.4825 24.9927 12.0632 25.5107C11.3231 26.4482 10.5337 26.7195 9.37424 26.3988C8.23947 26.1028 7.47473 25.2147 7.2527 23.9566C7.15403 23.2412 6.73465 22.2051 5.99458 20.7743C5.96991 20.7249 5.62455 20.9223 5.22984 21.2183C4.09506 22.0571 2.54091 22.1311 1.48014 21.4157C0.419374 20.7003 0 19.9109 0 18.5787C0 16.6792 1.80084 15.3471 3.47834 16.0378C4.1444 16.3338 4.24308 16.2845 4.73646 15.6678C5.37786 14.8537 6.58664 14.311 7.77075 14.311C8.6095 14.311 8.63417 14.2863 8.36281 13.7436C8.2148 13.4476 8.04211 13.1515 7.99278 13.1022C7.94344 13.0529 7.5734 13.2996 7.15403 13.6449C6.24127 14.4343 4.88447 14.829 3.92238 14.6317C3.05896 14.459 2.22022 13.4969 2.22022 12.6828C2.22022 12.1648 2.34356 12.1154 3.52768 12.0414C4.61311 11.9674 4.81047 11.8934 4.81047 11.474C4.81047 11.03 4.61311 10.9807 3.25632 10.9067C1.80084 10.8326 1.6775 10.7833 1.20878 10.0432C0.937424 9.59919 0.764741 8.93313 0.78941 8.51375C0.863417 7.84769 0.962093 7.77368 1.94886 7.65034C2.98496 7.52699 3.03429 7.47765 3.47834 6.29354C3.99639 4.98608 5.67388 3.20991 6.41396 3.20991C7.1787 3.20991 7.47473 2.56851 7.32671 1.21171C7.20337 0.175612 7.22803 -0.0217409 7.52406 0.101604C7.64247 0.146007 7.81415 0.217049 7.98584 0.288092L7.98585 0.288096L7.98587 0.288102L7.98587 0.288105L7.98609 0.288193C8.10048 0.335527 8.21486 0.382857 8.31347 0.422302ZM3.55234 2.12447C4.29242 2.86454 3.87304 3.94998 2.83694 3.94998C1.80084 3.94998 1.38147 2.86454 2.12154 2.12447C2.31889 1.90245 2.66426 1.72976 2.83694 1.72976C3.00963 1.72976 3.35499 1.90245 3.55234 2.12447ZM1.48014 5.82483C1.48014 6.02218 1.30746 6.17019 1.11011 6.17019C0.740072 6.17019 0.592057 5.65214 0.888086 5.35611C1.13478 5.13409 1.48014 5.40545 1.48014 5.82483ZM0.690734 11.3754C0.641396 11.5234 0.493381 11.6221 0.370036 11.6221C0.246691 11.6221 0.0986762 11.5234 0.0493381 11.3754C0 11.2274 0.148014 11.104 0.370036 11.104C0.592057 11.104 0.740072 11.2274 0.690734 11.3754ZM19.1432 22.2298C19.3899 22.6491 18.8225 23.1178 18.4771 22.7725C18.1811 22.4764 18.3785 21.9584 18.7485 21.9584C18.8718 21.9584 19.0445 22.0817 19.1432 22.2298ZM8.48612 2.14914C8.16542 3.08656 7.84472 2.8152 7.74605 1.48307L7.64737 0.397635L8.19009 0.940354C8.63413 1.3844 8.68347 1.58175 8.48612 2.14914ZM14.8014 1.3104C14.8014 2.49451 14.234 3.13591 12.7539 3.55528C11.2244 3.99932 10.287 4.88741 9.74426 6.39222C9.22621 7.87236 8.95485 8.14372 7.99276 8.14372C7.4007 8.14372 7.15401 8.26707 7.15401 8.51376C7.15401 8.71111 7.32669 8.8838 7.52404 8.8838C7.96809 8.8838 7.99276 9.17982 7.62272 9.54986C7.12934 10.0432 8.06676 10.6106 9.34956 10.6106C10.6817 10.6106 11.2244 11.03 10.9777 11.8441C10.8297 12.3375 10.5583 12.4361 9.32489 12.3375C8.48614 12.2881 8.23945 12.7075 8.73283 13.4476C9.59625 14.755 11.9398 14.385 13.1979 12.7322C13.8147 11.9181 13.9873 11.8441 15.0974 11.8441C16.7256 11.8441 16.5776 11.2767 14.9001 11.104C14.234 11.03 13.5433 10.882 13.3706 10.7833C12.8526 10.4379 12.3098 9.13049 12.3839 8.43975C12.4579 7.87236 12.5812 7.74902 13.3213 7.69968C14.382 7.60101 14.7274 7.32965 14.9248 6.41689C14.9988 6.02219 15.4181 5.23278 15.8622 4.64072C16.3802 3.92532 16.6023 3.33326 16.5776 2.83988C16.4789 1.77911 16.0349 1.43374 16.0349 2.4205C16.0349 3.70329 15.2208 4.93675 14.382 4.93675C14.3327 4.93675 14.5301 4.61605 14.8754 4.19667C15.7142 3.20991 15.9115 2.19848 15.4181 1.26106C14.9248 0.298964 14.8014 0.298964 14.8014 1.3104ZM12.0878 7.13229C12.0878 7.77369 11.4711 8.21773 10.8544 8.02038C10.2376 7.82303 10.1883 6.78693 10.7804 6.44156C11.3477 6.14553 12.0878 6.54024 12.0878 7.13229ZM11.2491 7.65033C10.805 7.65033 10.5337 7.25563 10.731 6.91026C11.0024 6.46622 11.5944 6.6389 11.5944 7.15695C11.5944 7.42831 11.4464 7.65033 11.2491 7.65033ZM9.12752 1.4584C9.12752 2.4945 8.26411 3.33325 7.03065 3.5306C5.64919 3.75262 4.73643 4.59137 3.84834 6.44155C3.13294 7.92169 3.03427 8.02037 2.17085 8.09438C1.55412 8.14371 1.23342 8.29173 1.23342 8.53842C1.23342 8.73577 1.40611 8.88379 1.60346 8.88379C2.02283 8.88379 2.09684 9.27849 1.72681 9.50051C1.13475 9.87055 2.0475 10.3639 3.33029 10.3639C4.58842 10.3639 5.42716 10.8326 5.42716 11.548C5.42716 12.0908 4.61309 12.5841 3.67566 12.5841C2.63956 12.5841 2.41754 12.9788 3.0836 13.6696C4.07037 14.6563 5.84654 14.311 7.25267 12.8555C8.11609 11.9921 8.36278 11.8687 9.30021 11.8934C9.89226 11.8934 10.435 11.8441 10.509 11.7701C10.879 11.4247 10.2376 11.104 9.15219 11.104C7.62271 11.104 6.8333 10.3639 6.80863 8.83445L6.78396 7.77368L7.79539 7.69967C8.78216 7.62566 8.85616 7.57632 9.25087 6.46622C9.49756 5.82482 9.9416 4.9614 10.2623 4.51736C10.9284 3.65394 11.027 2.54384 10.5337 1.8531C10.213 1.4584 10.1883 1.48307 10.287 2.14913C10.435 3.01255 9.84293 4.32001 9.15219 4.69004C8.31344 5.10942 8.31344 4.9614 9.10285 4.07332C9.96627 3.08656 10.1636 1.53241 9.49756 0.989687C9.17686 0.718327 9.12752 0.792334 9.12752 1.4584ZM5.94521 6.41688C6.70996 6.83625 6.38926 8.14371 5.52584 8.14371C5.18047 8.14371 4.4404 7.47765 4.4404 7.15695C4.4404 6.93493 5.13114 6.17019 5.32849 6.17019C5.40249 6.17019 5.67385 6.29353 5.94521 6.41688ZM5.57518 7.65033C5.13114 7.65033 4.85978 7.25563 5.05713 6.91026C5.32849 6.46622 5.92055 6.6389 5.92055 7.15695C5.92055 7.42831 5.77253 7.65033 5.57518 7.65033ZM12.5319 1.90245C12.4578 2.56851 12.4332 3.08656 12.4332 3.11123C12.4578 3.1359 12.8279 3.03722 13.2719 2.91388C13.8146 2.76586 14.0613 2.54384 14.0613 2.22314C14.0613 1.7791 13.1979 0.743 12.8032 0.743C12.7045 0.743 12.5812 1.26105 12.5319 1.90245ZM15.3935 6.36755C15.6155 5.40546 16.7256 4.19668 17.8851 3.67863C19.6859 2.83988 22.1035 3.30859 23.3123 4.69006L23.8056 5.25745L23.3123 5.06009C21.2647 4.14734 18.5018 5.7755 18.4278 7.94637C18.4031 9.13049 18.9212 10.2406 19.6859 10.6353C19.9858 10.7753 20.2533 10.9152 20.3702 10.9764L20.3703 10.9764C20.3976 10.9907 20.4166 11.0007 20.426 11.0053C20.5987 11.104 19.7599 12.4855 19.1925 13.0035C18.5018 13.6696 16.997 14.311 16.2076 14.311C15.4428 14.311 14.2587 13.3982 14.3574 12.8555C14.4067 12.5842 14.7768 12.4115 15.5415 12.3375C16.3556 12.2388 16.6763 12.0908 16.7256 11.7701C16.8736 11.03 16.3063 10.6106 15.1961 10.6106C14.012 10.6106 12.8773 9.96924 13.2966 9.54986C13.6667 9.17983 13.642 8.8838 13.1979 8.8838C13.0006 8.8838 12.8279 8.71111 12.8279 8.51376C12.8279 8.26707 13.0993 8.14373 13.6913 8.14373C14.6041 8.14373 15.0975 7.62568 15.3935 6.36755ZM16.6763 8.09439C17.3424 8.19306 17.8357 7.57634 17.6384 6.91027C17.4657 6.31822 16.3309 6.21954 16.1336 6.76226C15.8869 7.40365 16.1582 8.02038 16.6763 8.09439ZM16.3556 7.05828C16.1583 7.57633 16.6763 8.09438 17.0464 7.72434C17.3671 7.40365 17.1697 6.66357 16.775 6.66357C16.627 6.66357 16.4543 6.83626 16.3556 7.05828ZM18.9952 9.15516C18.4772 7.87237 19.2172 6.12086 20.5987 5.52881C22.7943 4.51737 24.9158 6.19487 25.2858 9.25383L25.4339 10.4873L24.7184 8.98247C23.559 6.58958 22.0542 5.80017 20.6727 6.91027C19.9326 7.47766 19.7353 8.06972 20.0067 8.83446C20.2533 9.45119 21.1661 9.57453 21.3881 9.00714C21.5855 8.46442 21.2401 8.19306 20.9441 8.63711C20.7467 8.9578 20.6974 8.9578 20.5 8.66178C20.0313 7.9217 20.8701 6.91027 21.9555 6.91027C24.003 6.91027 25.6559 11.7947 24.5211 14.5083C23.781 16.3339 21.9802 17.666 20.6974 17.3946C20.204 17.2713 19.76 17.37 19.3653 17.6166C19.0446 17.8387 18.3785 18.0114 17.9098 18.0114C16.775 18.0114 15.9116 18.8008 15.3689 20.3302C14.8015 21.8844 13.9874 22.4764 12.1619 22.6738C10.9284 22.7971 10.7311 22.8958 10.6571 23.3645C10.5584 24.0799 9.71966 24.1293 9.49764 23.4385C9.17694 22.4024 10.2624 21.465 11.8659 21.465C13.2227 21.465 13.9874 20.8483 14.4068 19.4175C14.6041 18.7021 15.0728 17.8387 15.4182 17.518C15.9856 16.9753 16.3556 16.9012 18.0825 16.8272C19.1926 16.8026 20.352 16.7039 20.6481 16.6299C21.3635 16.4819 22.8683 15.1744 23.337 14.2863C23.929 13.1022 23.781 10.9313 22.9423 9.17983C22.1282 7.47766 21.8568 7.23097 22.0789 8.48909C22.2269 9.15516 22.1282 9.45119 21.7335 9.84589C20.8207 10.7586 19.5379 10.4133 18.9952 9.15516ZM22.3748 9.77187C22.2761 9.87055 22.2021 10.5119 22.2021 11.2027C22.2021 11.9674 22.0294 12.8062 21.7334 13.3242C20.9193 14.8784 20.4753 15.0511 15.8375 15.6924C14.7027 15.8651 13.4693 17.0246 13.0992 18.3074C12.7292 19.5162 12.4825 19.7382 11.5451 19.7382C10.3363 19.7382 8.93016 20.4782 8.36277 21.391C7.94339 22.0571 7.86939 22.5011 7.94339 23.4632C8.09141 24.8693 8.63413 25.5601 9.74424 25.8068C10.7557 26.0041 11.8904 25.116 11.7918 24.2279C11.6931 23.4385 11.1997 23.2412 11.027 23.9319C10.8543 24.5733 10.2376 24.7953 9.52221 24.4746C8.83148 24.1539 8.6588 23.5865 8.93016 22.5258C9.17685 21.5884 10.1636 20.9716 11.4464 20.9716C12.9512 20.9716 13.5433 20.5276 13.938 19.1215C14.53 17.0986 15.1468 16.7039 17.8604 16.5065C20.3766 16.3092 21.314 15.9638 22.2761 14.8044C23.1642 13.7683 23.4356 12.6335 23.1642 11.2027C22.9422 9.96923 22.6708 9.50051 22.3748 9.77187ZM20.5 11.9921C20.7467 11.4247 21.0181 10.882 21.1167 10.7833C21.5361 10.3886 21.7088 10.6846 21.7088 11.7454C21.7088 12.7075 21.5854 13.0035 20.8947 13.6942C20.056 14.533 18.7238 15.051 17.3917 15.051C15.8375 15.0757 14.4807 15.5691 13.3953 16.5312C12.5072 17.3206 12.0385 17.518 10.9037 17.666C8.33815 17.962 7.64742 18.6034 7.64742 20.7003C7.64742 21.391 7.54874 21.9584 7.4254 21.9584C7.15404 21.9584 6.66066 20.6263 6.66066 19.9355C6.66066 19.1461 7.37606 18.0113 8.21481 17.518C9.15223 16.9259 8.68352 16.8519 7.62275 17.3946C7.12937 17.666 6.70999 18.2087 6.31529 19.0721C5.59989 20.7003 4.7118 21.3417 3.13298 21.3417C2.09688 21.3417 1.85019 21.243 1.20879 20.5276C0.197362 19.4175 0.197362 18.0113 1.20879 16.9999C1.97353 16.2598 2.66427 16.1118 3.47835 16.5312C3.94706 16.7779 4.11974 17.518 3.77438 17.8387C3.70037 17.9373 3.42901 17.8387 3.18232 17.6166C2.61493 17.0986 1.77618 17.3699 1.45548 18.1593C1.15946 18.9734 1.77618 20.1822 2.59026 20.3796C3.72504 20.6509 4.63779 20.0342 5.50121 18.406C5.94525 17.5673 6.56198 16.7779 6.90735 16.6052C7.25271 16.4325 8.23948 16.2845 9.12756 16.2845C11.1258 16.2845 12.1619 15.9885 13.6173 15.0757C14.6288 14.4343 14.8755 14.3603 15.6402 14.5823C17.3917 15.0757 19.6613 13.8423 20.5 11.9921ZM13.3459 13.2995C12.8279 14.237 11.6437 14.6317 8.83148 14.8044C6.21655 14.9524 6.14255 14.977 5.3038 15.7911C4.83509 16.2598 4.44038 16.8766 4.44038 17.1726C4.44038 17.814 3.5523 18.9981 3.05891 18.9981C2.63954 18.9981 2.61487 18.7021 3.00958 18.3074C3.2316 18.0853 3.18226 17.9867 2.83689 17.8633C2.41752 17.6906 1.72679 18.2827 1.72679 18.8007C1.72679 19.1708 2.71355 19.9849 3.18226 19.9849C3.84832 19.9849 4.85976 19.0968 5.03244 18.3567C5.47648 16.6052 6.78394 15.7911 9.17684 15.7911C11.027 15.7911 12.1125 15.5198 13.2226 14.755C14.0613 14.1876 14.234 13.7189 13.8393 13.1022C13.6666 12.8308 13.5679 12.8802 13.3459 13.2995ZM19.6612 20.4042C18.7731 19.8369 18.6744 19.0474 19.3652 18.3567C20.1052 17.6413 20.5739 17.6166 21.24 18.2827C21.8814 18.9241 21.7581 19.6888 20.9193 20.3056C20.3026 20.7743 20.2039 20.7743 19.6612 20.4042ZM10.8543 18.184C9.49753 18.3814 9.10282 18.5294 8.63411 18.9981C8.36275 19.2695 8.14073 19.7875 8.14073 20.1575C8.14073 20.7496 8.1654 20.7743 8.46143 20.4042C8.83146 19.9109 10.3856 19.2448 11.1997 19.2448C11.7918 19.2448 12.5812 18.6774 12.5812 18.2334C12.5812 18.0113 12.0138 17.9867 10.8543 18.184ZM2.78758 3.70329C2.36821 3.70329 2.12152 3.11123 2.31887 2.59318C2.39288 2.39583 2.6149 2.22314 2.78758 2.22314C2.98494 2.22314 3.28097 2.39583 3.45365 2.59318C3.70034 2.88921 3.70034 3.03722 3.45365 3.33325C3.28097 3.5306 2.98494 3.70329 2.78758 3.70329Z" fill="#15E49A"/>
</svg>
